<svg id="Capa_1" data-name="Capa 1" xmlns="http://www.w3.org/2000/svg" width="823.7537" height="988.5367" viewBox="0 0 823.7537 988.5367"><defs><style>.cls-1{fill:#78b3b7;}.cls-2{fill:#cf7746;}.cls-3{fill:#d1b061;}</style></defs><title>opposal-logo</title><path class="cls-1" d="M1396.4308,826.39c-.4548,9.6041-1.0688,19.2018-1.4392,28.81-.2846,7.3846-.4263,14.7775-.2441,22.1665.1712,6.9427-2.0747,12.9607-3.999,19.5234a112.6334,112.6334,0,0,1-11.0044,24.6486c-3.0586,5.276-6.7256,10.1726-10.2734,15.15-6.2208,8.7271-14.2769,15.63-21.8062,23.0182-9.0026,8.8339-19.8381,15.0214-31.5744,19.7429-11.4695,4.614-22.6824,9.8653-34.1457,14.4959-7.9193,3.1992-16.1461,5.6308-24.1045,8.74-12.66,4.9474-25.6788,8.9072-38.2464,14.1238-3.2484,1.3483-4.86-1.9762-5.746-4.31-3.32-8.7418-7.8758-16.79-12.3818-24.9552-8.4219-15.261-20.51-27.3039-32.9583-38.9592-7.6964-7.2058-16.5229-13.14-25.7567-18.5093-8.5978-4.9994-17.4479-9.4191-26.4092-13.6139a122.6928,122.6928,0,0,0-22.1169-7.5846c-5.2676-1.3277-10.3156-3.3728-15.6433-4.5825-5.76-1.3077-11.6031-2.2087-17.4565-2.9744a284.6989,284.6989,0,0,0-41.5709-2.64,247.1563,247.1563,0,0,0-52.621,6.498,227.0991,227.0991,0,0,0-28.1806,8.5775c-5.9638,2.2574-12.0461,4.4069-17.62,7.4405-8.5022,4.6272-17.1532,8.9585-25.3495,14.2516a169.7029,169.7029,0,0,0-18.945,13.5763,160.7255,160.7255,0,0,0-21.1131,21.7623,205.8136,205.8136,0,0,0-13.0669,18.7456c-3.4639,5.5438-6.11,11.5971-9.1388,17.4143-3.7793,7.26-5.524,15.1094-6.6955,23.118-.526,3.5959-4.6176,6.6175-7.6019,5.1942-5.0043-2.3868-10.5386-2.7241-15.7152-4.4815a200.37,200.37,0,0,0-22.2049-6.3347c-6.7978-1.4615-13.39-3.5856-20.063-5.41-7.4868-2.0468-14.7218-5.0068-22.0869-7.5093-5.5117-1.8727-10.9952-3.8715-16.6028-5.4069-5.507-1.5078-10.6006-4.0271-15.9475-5.9169-9.4452-3.3382-18.8511-6.8491-28.0419-10.8234-5.9131-2.5567-11.9428-4.8538-17.7008-7.8563-6.29-3.28-13.309-5.1684-19.573-8.4884-7.4575-3.9525-14.7541-8.3577-20.6479-14.6232-2.3826-2.533-5.6122-4.1353-7.963-6.5473A109.983,109.983,0,0,1,602.08,939.55c-3.2625-4.54-6.7028-9.0386-9.61-13.9257-3.8813-6.5245-7.8779-12.9586-10.7069-19.9916a107.837,107.837,0,0,1-7.2212-31.287c-1.6863-19.149-.4526-38.2287-1.091-57.3212-.1883-5.6306,2.0473-7.0271,7.3522-5.4417a75.398,75.398,0,0,0,7.4474,1.4524,235.1334,235.1334,0,0,0,26.449,3.4966c9.0714.6809,18.175,1.4786,27.1852,2.383,7.7532.7783,15.5456.1332,23.1579,1.3428a115.1163,115.1163,0,0,0,14.5439,1.11c3.2121.0989,6.38-.24,9.57.29a62.5964,62.5964,0,0,0,9.2834.3829c4.5849.0772,8.984-.5877,13.579-.2631a100.86,100.86,0,0,0,14.37-.0723q.2214-.0165.4426-.0349c1.155-.0962,2.307-.2323,3.45-.4222,9.6873-1.6088,19.3615-.3172,28.9326-1.4809,11.0129-1.3391,22.1013-1.9277,33.0727-3.3828,7.7266-1.0248,15.5247-1.8209,23.1654-3.2441,8.0171-1.4934,16.21-2.0142,24.0934-4.3341,3.3236-.9781,6.8937-.9849,10.3343-1.615,6.4574-1.1824,13.0515-2.1491,19.284-3.9593,7.0149-2.0374,14.092-4.0033,21.15-5.7545,4.1421-1.0278,8.19-2.39,12.2973-3.5423,4.3605-1.223,8.8384-1.98,13.213-3.163a5.5042,5.5042,0,0,1,2.3653-.0965c.9086.1532,1.5177.5461,2.4317.663a27.9729,27.9729,0,0,1,5.45.8936c9.3047,2.9778,18.9292,4.5605,28.45,6.6214,3.2979.7138,6.6525.9722,9.882,1.79a96.8022,96.8022,0,0,0,14.5326,2.9772,80.4466,80.4466,0,0,1,12.7131,2.05c7.1556,1.895,14.475,2.7305,21.6723,4.0694,7.62,1.4175,15.39,2.4975,23.107,3.3689,9.3752,1.0586,18.7558,1.9457,28.0989,3.3634,6.13.93,12.3829.1722,18.6092,1.6046,5.7288,1.318,11.8833,1.1766,17.7292,1.4426,11.2779.5131,22.5,1.9508,33.7906,2.0653,8.0861.082,16.191.4779,24.2537.0689,5.9267-.3007,11.8309.4707,17.7435.73,13.4672.5914,26.9221-.6985,40.3872-.6985,5.6476,0,11.2839-.1637,16.932-.1637a149.8937,149.8937,0,0,0,18.5986-1.3155c7.37-1.06,14.8219.14,22.3391-1.4257,7.06-1.47,14.558-1.13,21.8509-1.6821,4.1291-.3123,8.2154-1.0009,12.3181-1.5377,3.6749-.4808,7.3756-.3556,11.07-.7668a86.39,86.39,0,0,0,9.6562-1.6732c2.9712-.6782,6.1-.4446,9.132-.9307,5.8021-.93,11.7379-1.8846,17.6491-2.5034,3.94-.4124,8.1045-.4929,11.983-1.4894,8.5887-2.2064,17.4607-2.7481,26.06-4.8078l1.6475.1577c1.1769.1327.6916,7.09.6773,7.8508C1396.8608,816.3982,1396.6674,821.3949,1396.4308,826.39Z" transform="translate(-573.3119 -47.0813)"/><path class="cls-2" d="M1396.2768,803.5465c-8.5991,2.06-19.1182,2.4438-27.7069,4.65-3.8785.9965-8.0429,1.077-11.983,1.4894-5.9112.6188-11.847,1.5733-17.6491,2.5034-5.3865.8636-10.6289,1.6749-16.2443,2.5827-2.646.4278-.5862.0956-1.2161.1432-8.3338.63-16.4694,1.5588-24.7157,2.1825-7.2929.5516-14.7906.2118-21.8509,1.6821-7.5172,1.5656-14.97.3653-22.3391,1.4257a165.3473,165.3473,0,0,1-22.174,1.3618c-7.1988.0607-14.5927.121-21.7331.3366-2.77.0836-5.4612.0153-8.3866.2207-3.6827.2586-7.6413.5455-11.608.77-3.9471.2236-8.09-.3574-12.0431-.3388-1.8576.0087-3.66-.3309-5.5042-.4484a108.2048,108.2048,0,0,0-12.2123-.4547c-8.0627.409-16.1676.0131-24.2537-.0689-11.291-.1145-22.5127-1.5522-33.7906-2.0653-5.8459-.266-12-.1246-17.7292-1.4426-6.2263-1.4324-12.4793-.6744-18.6092-1.6046-9.3431-1.4177-18.7237-2.3048-28.0989-3.3634-7.7168-.8714-15.4869-1.9514-23.107-3.3689-7.1973-1.3389-14.5167-2.1744-21.6723-4.0694a80.4466,80.4466,0,0,0-12.7131-2.05,96.8022,96.8022,0,0,1-14.5326-2.9772c-3.23-.818-6.5841-1.0764-9.882-1.79-9.521-2.0609-19.1455-3.6436-28.45-6.6214-2.3082-.7387-5.9616-.6716-8.9931-1.638,8.22-2.9525,18.7005-5.0827,26.968-7.9541,8.1269-2.8224,16.2817-5.5654,24.2659-8.7649,11.8488-4.7482,23.7746-9.2707,35.51-14.3507,18.3729-7.9531,36.6056-16.2294,54.2268-25.6219,12.5274-6.6772,24.9079-13.8132,36.9153-21.4761,11.6847-7.4572,23.5174-14.6891,34.778-22.8037,6.3226-4.5561,13.2675-8.3409,19.1607-13.376,6.4314-5.4948,13.1922-10.5555,19.787-15.8112,8.3523-6.6563,16.2475-13.8534,24.7934-20.2976,5.4-4.072,9.3475-10.0437,14.6614-14.2629a196.9674,196.9674,0,0,0,25.7336-24.7977c7.0932-8.1178,15.1-15.3208,22.0969-23.4255,6.0806-7.0435,12.438-13.9275,18.0412-21.32,5.9749-7.8828,11.7915-15.9563,17.8419-23.7622,5.1906-6.6967,9.2651-14.1286,14.8716-20.5726,4.7392-5.4472,7.6032-12.3934,11.8437-18.3918a225.7362,225.7362,0,0,0,14.5893-24.11c9.6441-18.0758,19.23-36.1987,28.1783-54.6237,5.1819-10.67,9.0611-21.9714,13.5582-32.9758,4.9-11.99,9.6171-24.0268,13.3852-36.4525,1.7089-5.6357,2.6131-11.59,6.4926-16.866q0,20.1819,0,40.3636c-.0286,12.1456.3075,24.2275.2738,36.3732a15.7358,15.7358,0,0,0,.4743,2.4226c0,82.56.7514,165.1359.7514,247.6958-.0737,2.8473-.1067,2.1368-.1076,3.44-.0138,18.3191.0721,36.8794.1077,55.2-.0061,8.66-.2706,17.3169-.4358,25.9749-.1529,8.02.5977,16.0484.2783,24.0532-.3463,9.1768.0006,17.86.3606,27.76C1396.5183,792.9135,1397.5624,803.2386,1396.2768,803.5465Z" transform="translate(-573.3119 -47.0813)"/><path class="cls-2" d="M1004.7923,47.9266c8.22-.48,16.3691.7089,24.3342,2.2149a213.13,213.13,0,0,1,34.118,9.09c8.2667,3.0388,16.1815,6.7461,24.141,10.3738,7.778,3.5449,14.8188,8.5,21.8114,13.3812,13.6742,9.5462,25.4049,21.361,36.6254,33.5516a142.8146,142.8146,0,0,1,15.4459,21.0852c4.9184,7.8465,10.0668,15.58,13.5739,24.118,2.6244,6.3894,5.7309,12.5774,7.7926,19.2617,1.9843,6.4333,4.3692,12.8152,5.79,19.3563,1.705,7.8478,4.4774,15.6152,3.7547,23.8735a17.0274,17.0274,0,0,0-3.2818.1175c-7.6379,1.7463-15.1628,3.89-22.9353,5.193-2.9724.4982-6.3424.35-9.0059,1.6361-4.5308,2.1883-9.4554,1.6793-14.1057,2.61-5.2979,1.0608-10.8646,1.8325-16.3314,2.4407-3.9239.4366-8.3492-.009-11.8679,1.5173-5.8194,2.5242-11.9654.4385-17.8686,2.6722-4.5809,1.7333-10.01.5932-15.1746,1.5557a128.9805,128.9805,0,0,1-23.7926,1.6708c-32.8994-.1156-65.8487,2.3447-98.7156-1.1866-5.1534-.5537-10.7951,1.0327-15.526-.4936-7.2652-2.344-14.6592-.8737-21.9772-2.44-5.9724-1.2783-12.3783-3.0855-18.8213-2.1672a1.4228,1.4228,0,0,1-.8042-.128c-5.1745-2.6744-11.0227-1.6015-16.5081-2.81a128.2506,128.2506,0,0,0-14.282-2.4052,40.9428,40.9428,0,0,1-9.019-1.5379,125.3764,125.3764,0,0,0-18.16-4.2811c-5.906-1.0891-11.7981-2.4963-17.515-4.0021-7.5346-1.9844-15.2739-3.3079-22.6757-5.9541-2.52-.9008-5.1214-2.658-8.1374-1.8945-.5032-4.7112,1.4647-8.9264,2.5971-13.3244,1.4689-5.7045,2.81-11.4194,4.5861-17.0629,2.9843-9.4819,7.3787-18.2833,11.5471-27.2324a166.4692,166.4692,0,0,1,16.1327-26.7413c8.1648-11.3515,17.0748-22.26,27.8557-31.2441,10.1336-8.4446,20.6834-16.4274,32.1972-23.0275a203.87,203.87,0,0,1,40.231-18.0823C942.8665,53.84,954.8143,50.3248,967.51,49.42c3.5571-.2535,7.1492-1.2924,10.8188-1.268,3.4652-.0045,6.8893-.3021,10.3429-.5964a19.9936,19.9936,0,0,0,3.511-.3543c1.6617-.12,2.4442-.12,4.09-.12C1000.5165,47.5557,1001.9525,47.6472,1004.7923,47.9266Z" transform="translate(-573.3119 -47.0813)"/><path class="cls-1" d="M770.9957,630.75c3.0772-6.7249,2.16-13.7224,2.5943-21.11a12.35,12.35,0,0,0,.135-2.61,150.68,150.68,0,0,0-2.2782-18.488c-1.2365-6.0753-2.2039-12.2535-3.9-18.2209-2.4054-8.4637-5.1262-16.8429-9.8051-24.4376-3.5335-5.7355-6.7056-11.6721-10.4344-17.3149-5.633-8.5245-12.8276-15.571-19.8951-22.7795-10.6622-10.8748-23.1-19.2066-36.1753-26.9886-10.0762-5.9968-20.6954-10.6316-31.336-15.1613A115.4759,115.4759,0,0,0,642.1,457.9614c-5.1716-1.2577-10.2961-2.7264-15.4974-3.84-5.5132-1.18-11.1087-2.0532-16.6412-3.045-7.6047-1.3632-15.21-.6866-22.6972-1.7166-3.3184-.4565-6.6178-1.2464-9.9983-1.226-2.2892.0139-2.0779-1.4616-2.2708-3.0082-2.0511-16.4494-1.4974-32.9777-1.5686-49.4865-.0285-6.6174,2.6583-8.7516,8.941-6.4185,2.42.8988,4.7482.9091,7.13,1.2939,28.7945,4.652,57.7808,7.8058,86.8737,10.3964q21.0758,1.8768,42.1887,3.2977c6.6277.4461,13.0973.8762,19.7576.8229,19.1267-.153,38.1728,1.8614,57.2843,2.5564,9.8919.36,19.7958.4864,29.6913.1935,9.6663-.286,19.2168-1.4356,28.8719-2.0638q10.5149-.6841,21.0565-.8031c6.4857-.073,12.9764.0156,19.4568-.3075a184.2446,184.2446,0,0,0,18.7084-1.3982c6.2672-.9607,12.498-.44,18.6385-1.368,9.3341-1.411,18.7812-1.9,28.0682-3.4058,7.8519-1.2732,15.7556-2.13,23.5683-3.4038,9.6846-1.5786,19.5112-2.0045,29.1457-4.1575,4.6514-1.0395,9.611-1.3527,14.4348-1.9769,8.7839-1.1366,17.4514-2.78,26.1239-4.5839,19.0661-3.9647,38.4554-6.3791,57.5482-10.3961,23.0487-4.8493,45.8552-10.7749,68.6516-16.698,11.6956-3.0389,23.229-6.5016,34.7973-9.7832,8.1585-2.3143,16.4324-4.3535,24.3837-7.4894,5.81-2.2912,12.0909-3.2235,18.0039-5.39a230.6109,230.6109,0,0,1,22.7441-7.3942c3.5031-.8845,7.1684-1.1093,10.6188-2.5386,6.8461-2.8358,14.0229-4.7561,20.9563-7.4252,5.6358-2.17,11.2234-4.7269,17.2932-5.9928,4.5772-.9547,8.8735-3.2835,13.2725-5.056,3.8094-1.535,7.5366-2.973,11.6766-4.413,3.645-1.71,5.8573-3.0386,8.951-4.5969,1.94-.9774,5.5051-2.3106,5.2748.4683a34.4415,34.4415,0,0,1-.3086,4.2123c-.8732,4.8043-2.8319,9.2387-4.0272,13.9939-.7447,1.1066,0,0-1.3723,1.66-.6437.692-.8259.7241-.94.9493-2.92,5.768-8.2394,9.5448-12.15,14.5185-6.8535,8.7157-15.3278,16.05-22.6766,24.43-8.1141,9.2533-17.4659,17.3854-26.5216,25.7776-10.333,9.5761-20.2889,19.59-31.0429,28.6963-9.9721,8.4437-20.1407,16.6576-30.1138,25.1092-6.9594,5.8977-14.2877,11.379-21.649,16.7767-4.659,3.4163-9.2024,6.9824-13.8514,10.3925-7.8726,5.7747-16.0889,11.0857-24.2248,16.4952-8.4691,5.6311-16.87,11.3868-25.5645,16.6512-9.72,5.8849-19.5915,11.5491-29.359,17.34-12.3231,7.3062-25.1234,13.68-37.5519,20.7563-8.0972,4.61-16.77,8.1138-25.1692,12.1347-9.993,4.7839-19.9308,9.685-30.1118,14.0512-8.19,3.5122-16.5253,6.6831-24.7891,10.0227-3.95,1.5962-7.8476,3.3273-11.8321,4.83q-10.6259,4.0065-21.3325,7.7974c-5.2628,1.875-10.562,3.6492-15.8614,5.4195q-9.4346,3.1515-18.9007,6.2085a96.947,96.947,0,0,1-11.8715,3.5087c-5.1527.948-10.0689,2.7457-15.0478,4.15-7.4235,2.0934-14.8787,4.0236-22.3613,5.8736-5.1808,1.2808-10.3026,2.7617-15.5586,3.7867-6.1221,1.194-12.0833,3.5769-18.2339,4.1418-4.6058.4231-8.9766,1.8263-13.5174,2.4144a55.8753,55.8753,0,0,0-9.07,1.5719c-4.6126,1.404-9.3026,2.6977-14.089,2.7743-5.0554.081-9.8958,1.516-14.7708,2.2751-3.8644.6018-7.864.3661-11.5805,1.39C785.1536,629.6253,777.9734,629.41,770.9957,630.75Z" transform="translate(-573.3119 -47.0813)"/><path class="cls-3" d="M770.9957,630.75c6.9777-1.34,14.1579-1.1245,21.09-3.0336,3.7165-1.0235,7.7161-.7878,11.5805-1.39,4.875-.7591,9.7154-2.1941,14.7708-2.2751,4.7864-.0766,9.4764-1.37,14.089-2.7743a55.8753,55.8753,0,0,1,9.07-1.5719c4.5408-.5881,8.9116-1.9913,13.5174-2.4144,6.1506-.5649,12.1118-2.9478,18.2339-4.1418,5.256-1.025,10.3778-2.5059,15.5586-3.7867,7.4826-1.85,14.9378-3.78,22.3613-5.8736,4.9789-1.4039,9.8951-3.2016,15.0478-4.15a96.947,96.947,0,0,0,11.8715-3.5087q9.4715-3.0385,18.9007-6.2085c5.2994-1.77,10.5986-3.5445,15.8614-5.4195q10.6975-3.8115,21.3325-7.7974c3.9845-1.5023,7.8823-3.2334,11.8321-4.83,8.2638-3.34,16.6-6.51,24.7891-10.0227,10.181-4.3662,20.1188-9.2673,30.1118-14.0512,8.399-4.0209,17.072-7.5248,25.1692-12.1347,12.4285-7.0759,25.2288-13.45,37.5519-20.7563,9.7675-5.791,19.6392-11.4552,29.359-17.34,8.6949-5.2644,17.0954-11.02,25.5645-16.6512,8.1359-5.41,16.3522-10.7205,24.2248-16.4952,4.649-3.41,9.1924-6.9762,13.8514-10.3925,7.3613-5.3977,14.69-10.879,21.649-16.7767,9.9731-8.4516,20.1417-16.6655,30.1138-25.1092,10.754-9.1058,20.71-19.12,31.0429-28.6963,9.0557-8.3922,18.4075-16.5243,26.5216-25.7776,7.3488-8.38,15.8231-15.7145,22.6766-24.43,3.911-4.9737,9.23-8.75,12.15-14.5185a12.974,12.974,0,0,1,2.3123-2.6095c-1.7484,7.8617-5.4952,17.0389-7.427,24.4255-1.52,5.8136-3.7143,11.3378-5.582,16.9953-1.6894,5.1173-3.9871,10.0408-5.548,15.1918-2.4116,7.9582-6.5631,15.1669-9.4068,22.94-1.8391,5.027-4.46,9.7722-6.7918,14.6138-3.7083,7.6977-7.0736,15.5959-11.3025,22.9987-5.7239,10.02-11.4826,20.0515-17.0032,30.1568-5.3838,9.8547-12.6695,18.3924-17.8163,28.36-2.4578,4.76-6.1121,8.9364-9.4567,13.1947-5.0528,6.4331-9.3409,13.4158-14.6119,19.6985-7.3149,8.719-14.1853,17.8138-21.5784,26.4637-17.8683,20.9062-37.4953,40.1476-57.5756,58.8728-8.783,8.19-17.8977,16.1144-27.5209,23.4534-6.0611,4.6224-11.956,9.5859-18.1074,14.1129-6.993,5.1464-13.9551,10.36-21.1044,15.3165-5.8411,4.05-11.7223,8.0985-17.5713,12.16a207.0537,207.0537,0,0,1-19.0942,11.9941c-6.6682,3.6268-13.0155,7.8392-19.6346,11.5618-6.9774,3.9244-14.0352,7.7221-21.1932,11.305-9.3867,4.6984-18.8275,9.3051-28.3893,13.6324-10.0608,4.5531-20.0722,9.207-30.4352,13.1188-5.8609,2.2124-11.57,4.96-17.4672,7.15-7.052,2.6192-14.2163,4.9355-21.3225,7.41-5.6948,1.9832-11.292,4.3083-17.0892,5.9168-4.5989,1.276-9.2265,2.4487-13.7929,3.8615-5.1829,1.6036-10.3311,3.5483-15.6461,4.4325-5.4357.9043-10.4642,3.1028-15.9,3.9823-5.7438.9294-11.3475,2.7192-17.0169,4.1148-4.0359.9933-8.2057,1.0418-12.264,2.22-8.0866,2.3466-16.6248,2.5393-24.7927,4.7367-3.8676,1.04-8.051,1.0753-11.9858,1.477-5.9118.6035-11.8707,1.4865-17.6559,2.4389-7.7338,1.2732-15.7207.1166-23.2416,2.7583a4.8712,4.8712,0,0,1-1.6344.1192c-14.7409-.19-29.3819,1.734-44.1124,2.1709-10.7132.3178-21.5323,2.016-32.1883.9276-11.7119-1.1963-23.4988-.3291-35.0621-1.8069-6.943-.8874-13.8755-.3614-20.694-1.3957-9.2061-1.3965-18.4546-2.2743-27.6826-3.3839-7.4456-.8953-14.78-2.7541-22.34-3.1039-2.6583-.123-5.0267-1.8837-7.8663-1.6614-1.5464.121-1.0086-1.6733-1.6-2.4641-2.1259-2.84-1.192-6.0848-1.1061-9.1348.06-2.1264,1.7513-2.9812,3.9592-3.1925,7.9774-.7635,16.0441-.9641,23.9348-1.9233,8.1382-.9893,16.45-1.6708,24.449-4.2517,4.8955-1.58,10.135-2.2506,15.1994-3.4843,10.24-2.4944,19.8462-6.55,29.511-10.6051a161.4369,161.4369,0,0,0,24.2876-12.5454c4.8054-3.0576,9.9685-5.4891,14.3537-9.4383,4.7345-4.2637,11.0458-6.75,15.18-11.8548a78.3484,78.3484,0,0,1,13.0983-12.9141c1.4252-1.0958,1.5643-2.741,2.7208-3.892,6.3519-6.3216,10.4855-14.3264,15.6735-21.5124,1.9912-2.7579,2.98-6.7253,4.787-9.9822a77.6536,77.6536,0,0,0,8.6454-25.4517C769.6922,634.2362,771.4164,632.8172,770.9957,630.75Z" transform="translate(-573.3119 -47.0813)"/><path class="cls-3" d="M795.6741,214.3461c3.016-.7635,5.6176.9937,8.1374,1.8945,7.4018,2.6462,15.1411,3.97,22.6757,5.9541,5.7169,1.5058,11.609,2.913,17.515,4.0021a125.3764,125.3764,0,0,1,18.16,4.2811,40.9428,40.9428,0,0,0,9.019,1.5379,128.2506,128.2506,0,0,1,14.282,2.4052c5.4854,1.2081,11.3336.1352,16.5081,2.81a1.4228,1.4228,0,0,0,.8042.128c6.443-.9183,12.8489.8889,18.8213,2.1672,7.318,1.5663,14.712.096,21.9772,2.44,4.7309,1.5263,10.3726-.06,15.526.4936,32.8669,3.5313,65.8162,1.071,98.7156,1.1866a128.9805,128.9805,0,0,0,23.7926-1.6708c5.1643-.9625,10.5937.1776,15.1746-1.5557,5.9032-2.2337,12.0492-.148,17.8686-2.6722,3.5187-1.5263,7.944-1.0807,11.8679-1.5173,5.4668-.6082,11.0335-1.38,16.3314-2.4407,4.65-.9311,9.5749-.4221,14.1057-2.61,2.6635-1.2864,6.0335-1.1379,9.0059-1.6361,7.7725-1.303,15.2974-3.4467,22.9353-5.193a17.0274,17.0274,0,0,1,3.2818-.1175c2.1533,8.0786,2.2373,13.3293,2.9956,20.3756.4641,4.3121-.2259,3.7456.0909,8.1521.2057,2.8605.0751,3.36-.7462,9.12-1.2,7.8-2.23,14.4021-3.6586,21.5379-1.153,5.7586-1.8068,11.6206-3.6264,17.2378-1.0195,3.1474-2.1586,6.2569-3.2886,9.3672a4.7664,4.7664,0,0,1-3.4941,3.0059c-11.8775,3.2461-23.6436,7.0122-35.6662,9.5765-8.2705,1.7641-16.4567,3.9394-24.7109,5.7478-8.7428,1.9154-17.5291,3.9148-26.2916,5.685-6.44,1.301-12.8686,2.862-19.347,4.0677-7.2284,1.3453-14.6171,1.9825-21.7072,4.247-3.2874,1.05-6.9586,1.1572-10.3594,1.5389-5.3879.6047-10.7311,1.6769-16.0488,2.4778-8.7457,1.3171-17.5848,2.2282-26.2455,4.2564-4.5754,1.0715-9.4316,1.1247-14.084,1.5217-7.2994.623-14.535,1.8493-21.8412,2.4449-11.7286.956-23.4236,2.42-35.1619,3.464-5.2386.4662-10.5663.4685-15.7656,1.28-10.9694,1.7116-22.1332.5322-33,1.982-9.57,1.2768-19.0483.6933-28.5514,1.23-22.1066,1.2493-44.2767,2.8114-66.3529,1.1546-14.8836-1.117-29.814-.0059-44.5558-1.6843-8.588-.9778-17.2292-.0249-25.6149-1.4784-8.0194-1.39-16.128-.3025-23.9564-1.7377-5.9837-1.097-11.9438-.6228-17.8328-1.4541-10.5948-1.4957-21.2543-2.26-31.8714-3.4288-8.1537-.8973-16.346-1.9622-24.4216-3.306-8.4544-1.4068-17.0538-1.9782-25.4255-4.1876-4.2171-1.1129-8.811-.7963-13.2262-1.7989-3.1861-.7234-4.8863-1.7116-4.8866-5.07-.0021-18.1017-.3739-36.2117.0835-54.301a32.21,32.21,0,0,1,8.9463-20.9015c2.609-2.8113,7.1394-3.9823,10.965-5.473,2.6912-1.0487,5.4482-2.2867,8.3434-2.5593a22.0127,22.0127,0,0,1,8.4642.8769c9.01,1.6246,17.576,5.3566,26.2883,8.14a11.6,11.6,0,0,1,3.5419,1.7438c5.8971,4.5079,13.1045,6.3846,19.6356,9.5455a122.9115,122.9115,0,0,0,16.5959,7.0053,87.87,87.87,0,0,1,12.5588,5.1082c5.9039,2.917,12.1246,4.9619,18.2139,7.3808,16.5752,6.5844,33.5635,11.9731,50.559,17.2552,11.8267,3.6756,23.6886,7.378,35.8677,9.9628,4.0672.8632,8.5575,1.1846,12.1566,3.8716.8215.6134,1.8532.9,2.57.0079.6059-.7542.3936-1.6423-.0227-2.6455a191.8741,191.8741,0,0,1-9.5983-29.17,237.5379,237.5379,0,0,1-5.2914-35.971c-.5727-7.0549-1.212-14.1043-.8883-21.1158C792.8879,230.282,793.5842,222.1985,795.6741,214.3461Z" transform="translate(-573.3119 -47.0813)"/></svg>